<?xml version="1.0" encoding="utf-8"?>
<!-- Generator: Adobe Illustrator 18.1.0, SVG Export Plug-In . SVG Version: 6.00 Build 0)  -->
<svg version="1.1" id="Слой_1" xmlns="http://www.w3.org/2000/svg" xmlns:xlink="http://www.w3.org/1999/xlink" x="0px" y="0px"
	 viewBox="0 0 12.5 13" enable-background="new 0 0 12.5 13" xml:space="preserve">
<path display="none" fill-rule="evenodd" clip-rule="evenodd" fill="#585858" d="M6.3,13H3.6V6.5H2.2V4.2h1.4V2.9
	c0-1.8,0.8-2.9,3-2.9h1.8v2.2H7.2c-0.9,0-0.9,0.3-0.9,0.9l0,1.1h2.1L8.2,6.5H6.3V13z"/>
<path fill-rule="evenodd" clip-rule="evenodd" fill="#FFFFFF" d="M11.1,12.6H1.3C0.6,12.6,0,12,0,11.2V1.4c0-0.7,0.6-1.3,1.3-1.3
	h9.8c0.7,0,1.3,0.6,1.3,1.3v9.8C12.5,12,11.9,12.6,11.1,12.6z M6.2,4.1c-1.3,0-2.3,1-2.3,2.3c0,1.3,1,2.3,2.3,2.3s2.3-1,2.3-2.3
	C8.5,5.1,7.4,4.1,6.2,4.1z M11,2.3c0-0.4-0.3-0.7-0.7-0.7h-1C9,1.6,8.7,1.9,8.7,2.3v1.2c0,0.4,0.3,0.7,0.7,0.7h1
	c0.4,0,0.7-0.3,0.7-0.7V2.3z M11,5.4H9.8c0.1,0.3,0.1,0.7,0.1,1c0,2.1-1.7,3.8-3.8,3.8c-2.1,0-3.8-1.7-3.8-3.8c0-0.3,0.1-0.7,0.1-1
	h-1v5.2c0,0.4,0.3,0.7,0.7,0.7h8.2c0.4,0,0.7-0.3,0.7-0.7V5.4z"/>
</svg>
