<?xml version="1.0" encoding="utf-8"?>
<!-- Generator: Adobe Illustrator 18.1.0, SVG Export Plug-In . SVG Version: 6.00 Build 0)  -->
<svg version="1.1" id="Слой_1" xmlns="http://www.w3.org/2000/svg" xmlns:xlink="http://www.w3.org/1999/xlink" x="0px" y="0px"
	 viewBox="0 0 13.4 10.1" enable-background="new 0 0 13.4 10.1" xml:space="preserve">
<path fill-rule="evenodd" clip-rule="evenodd" fill="#585858" d="M13.4,1.2c-0.5,0.2-1,0.3-1.6,0.4c0.6-0.3,1-0.8,1.2-1.4
	c-0.5,0.3-1.1,0.5-1.8,0.6C10.8,0.3,10.1,0,9.3,0C7.8,0,6.5,1.1,6.5,2.5c0,0.2,0,0.4,0.1,0.6C4.3,3,2.3,2,0.9,0.5
	C0.7,0.8,0.6,1.3,0.6,1.7c0,0.9,0.5,1.7,1.2,2.1c-0.5,0-0.9-0.1-1.2-0.3c0,0,0,0,0,0c0,1.2,1,2.3,2.2,2.5C2.5,6.1,2.3,6.2,2,6.2
	c-0.2,0-0.4,0-0.5,0c0.4,1,1.4,1.7,2.6,1.8C3.1,8.6,2,9,0.7,9C0.4,9,0.2,9,0,8.9c1.2,0.7,2.7,1.1,4.2,1.1c5.1,0,7.8-3.9,7.8-7.2
	c0-0.1,0-0.2,0-0.3C12.6,2.2,13.1,1.7,13.4,1.2z"/>
</svg>
